<svg xmlns="http://www.w3.org/2000/svg" version="1.0" width="1024.000000pt" height="1024.000000pt" viewBox="0 0 1024.000000 1024.000000" preserveAspectRatio="xMidYMid meet">

<g transform="translate(-50.000000,1075.000000) scale(0.110000,-0.110000)" fill="#67429c" stroke="none">
<path d="M4849 7929 c-532 -51 -1068 -369 -1351 -799 -112 -169 -204 -379 -237 -541 l-12 -56 -98 -7 c-350 -24 -710 -212 -971 -507 -189 -215 -303 -442 -361 -719 -17 -84 -22 -140 -22 -275 0 -203 16 -305 75 -484 178 -535 627 -929 1157 -1017 134 -22 374 -15 502 15 261 60 504 194 712 392 51 49 96 89 100 89 4 0 29 -11 55 -24 112 -56 299 -114 477 -147 142 -27 421 -36 564 -20 495 58 839 312 943 696 29 109 32 340 4 430 -33 111 -95 214 -176 296 -168 170 -376 256 -910 379 -388 88 -495 125 -577 195 -121 103 -115 287 13 405 99 91 221 124 454 123 331 -1 686 -93 1049 -272 l124 -61 279 0 c311 0 431 -10 555 -46 180 -52 312 -131 453 -273 145 -146 230 -290 282 -481 20 -74 23 -107 22 -250 -1 -147 -4 -176 -28 -265 -102 -376 -356 -638 -714 -737 -69 -20 -106 -22 -365 -24 l-288 -3 -82 -73 c-171 -154 -239 -202 -391 -278 -110 -55 -132 -74 -99 -84 10 -3 266 -6 568 -8 501 -3 559 -1 650 16 200 37 407 123 565 234 108 77 268 246 353 373 171 257 252 509 264 824 4 114 1 162 -15 260 -54 309 -195 584 -418 815 -267 276 -596 420 -1003 439 l-134 6 -27 110 c-83 331 -265 648 -496 864 -153 143 -323 257 -491 330 -320 139 -633 191 -954 160z m466 -438 c133 -28 236 -65 366 -132 270 -140 482 -356 609 -621 23 -48 40 -91 39 -97 -2 -6 -35 3 -74 20 -167 71 -455 141 -720 175 -175 22 -495 23 -630 1 -112 -18 -232 -53 -332 -98 -193 -87 -372 -286 -446 -497 -28 -78 -31 -102 -35 -229 -4 -131 -2 -149 22 -235 63 -218 207 -383 431 -492 157 -77 326 -126 671 -196 241 -48 355 -79 451 -125 138 -65 206 -157 205 -281 -1 -153 -116 -261 -347 -325 -124 -34 -367 -38 -539 -9 -209 35 -348 87 -552 205 -62 36 -123 65 -138 65 -55 0 -107 -45 -281 -245 -147 -168 -243 -248 -385 -320 -139 -70 -205 -87 -365 -92 -161 -6 -247 7 -373 58 -95 38 -147 67 -237 134 -382 284 -530 773 -370 1221 151 424 522 699 970 721 89 4 145 1 219 -11 81 -14 102 -15 112 -4 6 7 17 58 23 113 14 121 60 312 100 417 185 478 582 802 1097 893 110 19 388 12 509 -14z" fill="#67429c"/>
</g>
</svg>